<mxfile host="Electron" agent="Mozilla/5.0 (Windows NT 10.0; Win64; x64) AppleWebKit/537.36 (KHTML, like Gecko) draw.io/24.7.8 Chrome/128.0.6613.36 Electron/32.0.1 Safari/537.36" version="24.7.8">
  <diagram name="Page-1" id="cXqrl5YllDu3xgYo9bkZ">
    <mxGraphModel dx="1381" dy="808" grid="1" gridSize="10" guides="1" tooltips="1" connect="1" arrows="1" fold="1" page="1" pageScale="1" pageWidth="850" pageHeight="1100" math="0" shadow="0">
      <root>
        <mxCell id="0" />
        <mxCell id="1" parent="0" />
        <mxCell id="27rqSYibD72cMWKEUH1B-13" value="" style="edgeStyle=orthogonalEdgeStyle;rounded=0;orthogonalLoop=1;jettySize=auto;html=1;" edge="1" parent="1" source="27rqSYibD72cMWKEUH1B-6" target="27rqSYibD72cMWKEUH1B-7">
          <mxGeometry relative="1" as="geometry" />
        </mxCell>
        <mxCell id="27rqSYibD72cMWKEUH1B-6" value="firstTableGeneration start" style="strokeWidth=2;html=1;shape=mxgraph.flowchart.terminator;whiteSpace=wrap;" vertex="1" parent="1">
          <mxGeometry x="239.93" y="35" width="120" height="40" as="geometry" />
        </mxCell>
        <mxCell id="27rqSYibD72cMWKEUH1B-14" value="" style="edgeStyle=orthogonalEdgeStyle;rounded=0;orthogonalLoop=1;jettySize=auto;html=1;" edge="1" parent="1" source="27rqSYibD72cMWKEUH1B-7" target="27rqSYibD72cMWKEUH1B-8">
          <mxGeometry relative="1" as="geometry" />
        </mxCell>
        <mxCell id="27rqSYibD72cMWKEUH1B-7" value="a = 0&lt;div&gt;b = 1&lt;/div&gt;&lt;div&gt;&lt;br&gt;&lt;/div&gt;" style="rounded=1;whiteSpace=wrap;html=1;absoluteArcSize=1;arcSize=14;strokeWidth=2;" vertex="1" parent="1">
          <mxGeometry x="239.93" y="115" width="120" height="80" as="geometry" />
        </mxCell>
        <mxCell id="27rqSYibD72cMWKEUH1B-15" value="" style="edgeStyle=orthogonalEdgeStyle;rounded=0;orthogonalLoop=1;jettySize=auto;html=1;" edge="1" parent="1" source="27rqSYibD72cMWKEUH1B-8" target="27rqSYibD72cMWKEUH1B-9">
          <mxGeometry relative="1" as="geometry" />
        </mxCell>
        <mxCell id="27rqSYibD72cMWKEUH1B-8" value="data: Task1Data = []&lt;div&gt;x = (b + a) / 2&lt;/div&gt;&lt;div&gt;&lt;br&gt;&lt;/div&gt;" style="rounded=1;whiteSpace=wrap;html=1;absoluteArcSize=1;arcSize=14;strokeWidth=2;" vertex="1" parent="1">
          <mxGeometry x="239.93" y="235" width="120" height="80" as="geometry" />
        </mxCell>
        <mxCell id="27rqSYibD72cMWKEUH1B-12" value="" style="edgeStyle=orthogonalEdgeStyle;rounded=0;orthogonalLoop=1;jettySize=auto;html=1;" edge="1" parent="1" source="27rqSYibD72cMWKEUH1B-9" target="27rqSYibD72cMWKEUH1B-11">
          <mxGeometry relative="1" as="geometry" />
        </mxCell>
        <mxCell id="27rqSYibD72cMWKEUH1B-9" value="&quot;x = &quot; + x" style="shape=parallelogram;html=1;strokeWidth=2;perimeter=parallelogramPerimeter;whiteSpace=wrap;rounded=1;arcSize=12;size=0.23;" vertex="1" parent="1">
          <mxGeometry x="239.93" y="355" width="120" height="80" as="geometry" />
        </mxCell>
        <mxCell id="27rqSYibD72cMWKEUH1B-21" value="" style="edgeStyle=orthogonalEdgeStyle;rounded=0;orthogonalLoop=1;jettySize=auto;html=1;" edge="1" parent="1" source="27rqSYibD72cMWKEUH1B-11" target="27rqSYibD72cMWKEUH1B-20">
          <mxGeometry relative="1" as="geometry" />
        </mxCell>
        <mxCell id="27rqSYibD72cMWKEUH1B-56" style="edgeStyle=orthogonalEdgeStyle;rounded=0;orthogonalLoop=1;jettySize=auto;html=1;" edge="1" parent="1" source="27rqSYibD72cMWKEUH1B-11">
          <mxGeometry relative="1" as="geometry">
            <mxPoint x="609.9300000000001" y="873" as="targetPoint" />
          </mxGeometry>
        </mxCell>
        <mxCell id="27rqSYibD72cMWKEUH1B-11" value="epsDegree from 2 to 14 step 3" style="verticalLabelPosition=bottom;verticalAlign=top;html=1;shape=hexagon;perimeter=hexagonPerimeter2;arcSize=6;size=0.27;" vertex="1" parent="1">
          <mxGeometry x="239.93" y="475" width="120" height="80" as="geometry" />
        </mxCell>
        <mxCell id="27rqSYibD72cMWKEUH1B-23" value="" style="edgeStyle=orthogonalEdgeStyle;rounded=0;orthogonalLoop=1;jettySize=auto;html=1;" edge="1" parent="1" source="27rqSYibD72cMWKEUH1B-20" target="27rqSYibD72cMWKEUH1B-22">
          <mxGeometry relative="1" as="geometry" />
        </mxCell>
        <mxCell id="27rqSYibD72cMWKEUH1B-20" value="eps = 10**-epsDegree&lt;div&gt;res = 1&lt;br&gt;&lt;/div&gt;&lt;div&gt;uk = x**2 / 2&lt;br&gt;&lt;/div&gt;&lt;div&gt;k = 2&lt;br&gt;&lt;/div&gt;" style="rounded=1;whiteSpace=wrap;html=1;absoluteArcSize=1;arcSize=14;strokeWidth=2;" vertex="1" parent="1">
          <mxGeometry x="239.93" y="595" width="120" height="80" as="geometry" />
        </mxCell>
        <mxCell id="27rqSYibD72cMWKEUH1B-29" value="" style="edgeStyle=orthogonalEdgeStyle;rounded=0;orthogonalLoop=1;jettySize=auto;html=1;" edge="1" parent="1" source="27rqSYibD72cMWKEUH1B-22" target="27rqSYibD72cMWKEUH1B-26">
          <mxGeometry relative="1" as="geometry">
            <Array as="points">
              <mxPoint x="459.93" y="755" />
            </Array>
          </mxGeometry>
        </mxCell>
        <mxCell id="27rqSYibD72cMWKEUH1B-32" value="Yes" style="edgeLabel;html=1;align=center;verticalAlign=middle;resizable=0;points=[];" vertex="1" connectable="0" parent="27rqSYibD72cMWKEUH1B-29">
          <mxGeometry x="0.019" relative="1" as="geometry">
            <mxPoint as="offset" />
          </mxGeometry>
        </mxCell>
        <mxCell id="27rqSYibD72cMWKEUH1B-44" value="" style="edgeStyle=orthogonalEdgeStyle;rounded=0;orthogonalLoop=1;jettySize=auto;html=1;exitX=0;exitY=0.5;exitDx=0;exitDy=0;exitPerimeter=0;" edge="1" parent="1" source="27rqSYibD72cMWKEUH1B-22" target="27rqSYibD72cMWKEUH1B-43">
          <mxGeometry relative="1" as="geometry" />
        </mxCell>
        <mxCell id="27rqSYibD72cMWKEUH1B-22" value="" style="strokeWidth=2;html=1;shape=mxgraph.flowchart.decision;whiteSpace=wrap;" vertex="1" parent="1">
          <mxGeometry x="242.43" y="715" width="115" height="80" as="geometry" />
        </mxCell>
        <mxCell id="27rqSYibD72cMWKEUH1B-31" value="" style="edgeStyle=orthogonalEdgeStyle;rounded=0;orthogonalLoop=1;jettySize=auto;html=1;" edge="1" parent="1" source="27rqSYibD72cMWKEUH1B-24" target="27rqSYibD72cMWKEUH1B-22">
          <mxGeometry relative="1" as="geometry" />
        </mxCell>
        <mxCell id="27rqSYibD72cMWKEUH1B-24" value="eps &amp;lt; uk*2/3 ||&amp;nbsp;&lt;span style=&quot;background-color: initial;&quot;&gt;((k = k - 2) &amp;amp;&amp;amp; false)&lt;/span&gt;" style="strokeWidth=2;html=1;shape=mxgraph.flowchart.annotation_1;align=left;pointerEvents=1;" vertex="1" parent="1">
          <mxGeometry x="389.93" y="635" width="40" height="80" as="geometry" />
        </mxCell>
        <mxCell id="27rqSYibD72cMWKEUH1B-26" value="res += uk&lt;div&gt;uk *= x**2 / ((k + 1) * (k + 2))&lt;br&gt;&lt;/div&gt;&lt;div&gt;k += 2&lt;br&gt;&lt;/div&gt;" style="rounded=1;whiteSpace=wrap;html=1;absoluteArcSize=1;arcSize=14;strokeWidth=2;" vertex="1" parent="1">
          <mxGeometry x="399.93" y="765" width="120" height="80" as="geometry" />
        </mxCell>
        <mxCell id="27rqSYibD72cMWKEUH1B-48" value="" style="edgeStyle=orthogonalEdgeStyle;rounded=0;orthogonalLoop=1;jettySize=auto;html=1;" edge="1" parent="1" source="27rqSYibD72cMWKEUH1B-43" target="27rqSYibD72cMWKEUH1B-47">
          <mxGeometry relative="1" as="geometry" />
        </mxCell>
        <mxCell id="27rqSYibD72cMWKEUH1B-43" value="" style="rounded=1;whiteSpace=wrap;html=1;absoluteArcSize=1;arcSize=14;strokeWidth=2;" vertex="1" parent="1">
          <mxGeometry x="159.93" y="885" width="120" height="80" as="geometry" />
        </mxCell>
        <mxCell id="27rqSYibD72cMWKEUH1B-46" value="" style="edgeStyle=orthogonalEdgeStyle;rounded=0;orthogonalLoop=1;jettySize=auto;html=1;" edge="1" parent="1" source="27rqSYibD72cMWKEUH1B-45" target="27rqSYibD72cMWKEUH1B-43">
          <mxGeometry relative="1" as="geometry" />
        </mxCell>
        <mxCell id="27rqSYibD72cMWKEUH1B-45" value="&lt;div style=&quot;font-size: 11px;&quot;&gt;&lt;span style=&quot;background-color: initial;&quot;&gt;task1Data: Task1Data = {&lt;/span&gt;&lt;br&gt;&lt;/div&gt;&lt;div style=&quot;font-size: 11px;&quot;&gt;&lt;font style=&quot;font-size: 11px;&quot;&gt;eps: &#39;10^-&#39; + epsDegree,&lt;/font&gt;&lt;/div&gt;&lt;div style=&quot;font-size: 11px;&quot;&gt;&lt;font style=&quot;font-size: 11px;&quot;&gt;n: k,&lt;/font&gt;&lt;/div&gt;&lt;div style=&quot;font-size: 11px;&quot;&gt;&lt;font style=&quot;font-size: 11px;&quot;&gt;absoluteError: abs(cosh(x) - res),&lt;/font&gt;&lt;/div&gt;&lt;div style=&quot;font-size: 11px;&quot;&gt;&lt;font style=&quot;font-size: 11px;&quot;&gt;reminder: uk,&lt;/font&gt;&lt;/div&gt;&lt;div style=&quot;font-size: 11px;&quot;&gt;&lt;font style=&quot;font-size: 11px;&quot;&gt;calculatedValue: res,&lt;/font&gt;&lt;/div&gt;&lt;div style=&quot;font-size: 11px;&quot;&gt;&lt;font style=&quot;font-size: 11px;&quot;&gt;realValue: cosh(x)&lt;/font&gt;&lt;span style=&quot;background-color: initial; font-size: 12px;&quot;&gt;}&lt;/span&gt;&lt;/div&gt;" style="strokeWidth=2;html=1;shape=mxgraph.flowchart.annotation_1;align=left;pointerEvents=1;" vertex="1" parent="1">
          <mxGeometry x="329.93" y="875" width="50" height="100" as="geometry" />
        </mxCell>
        <mxCell id="27rqSYibD72cMWKEUH1B-54" style="edgeStyle=orthogonalEdgeStyle;rounded=0;orthogonalLoop=1;jettySize=auto;html=1;entryX=0;entryY=0.5;entryDx=0;entryDy=0;exitX=0;exitY=0.5;exitDx=0;exitDy=0;" edge="1" parent="1" source="27rqSYibD72cMWKEUH1B-47" target="27rqSYibD72cMWKEUH1B-11">
          <mxGeometry relative="1" as="geometry" />
        </mxCell>
        <mxCell id="27rqSYibD72cMWKEUH1B-47" value="data.push(task1Data)" style="rounded=1;whiteSpace=wrap;html=1;absoluteArcSize=1;arcSize=14;strokeWidth=2;" vertex="1" parent="1">
          <mxGeometry x="159.93" y="985" width="120" height="80" as="geometry" />
        </mxCell>
        <mxCell id="27rqSYibD72cMWKEUH1B-58" value="" style="edgeStyle=orthogonalEdgeStyle;rounded=0;orthogonalLoop=1;jettySize=auto;html=1;" edge="1" parent="1" source="27rqSYibD72cMWKEUH1B-50" target="27rqSYibD72cMWKEUH1B-57">
          <mxGeometry relative="1" as="geometry" />
        </mxCell>
        <mxCell id="27rqSYibD72cMWKEUH1B-50" value="data" style="shape=parallelogram;html=1;strokeWidth=2;perimeter=parallelogramPerimeter;whiteSpace=wrap;rounded=1;arcSize=12;size=0.23;" vertex="1" parent="1">
          <mxGeometry x="549.9300000000001" y="875" width="120" height="80" as="geometry" />
        </mxCell>
        <mxCell id="27rqSYibD72cMWKEUH1B-57" value="firstTableGeneration end" style="strokeWidth=2;html=1;shape=mxgraph.flowchart.terminator;whiteSpace=wrap;" vertex="1" parent="1">
          <mxGeometry x="549.9300000000001" y="995" width="120" height="40" as="geometry" />
        </mxCell>
        <mxCell id="flzrbQLQ9kBleXe00RoQ-1" style="edgeStyle=orthogonalEdgeStyle;rounded=0;orthogonalLoop=1;jettySize=auto;html=1;entryX=0.5;entryY=0;entryDx=0;entryDy=0;entryPerimeter=0;exitX=0.5;exitY=1;exitDx=0;exitDy=0;" edge="1" parent="1" source="27rqSYibD72cMWKEUH1B-26" target="27rqSYibD72cMWKEUH1B-22">
          <mxGeometry relative="1" as="geometry">
            <Array as="points">
              <mxPoint x="459.93" y="865" />
              <mxPoint x="229.93" y="865" />
              <mxPoint x="229.93" y="695" />
              <mxPoint x="299.93" y="695" />
            </Array>
          </mxGeometry>
        </mxCell>
      </root>
    </mxGraphModel>
  </diagram>
</mxfile>
